<svg width="24" height="24" viewBox="0 0 24 24" fill="none" xmlns="http://www.w3.org/2000/svg">
<g clip-path="url(#clip0)">
<path d="M1.06962 3.01812L2.53685 5.58561C2.58634 5.67237 2.66918 5.73514 2.76605 5.75944L4.13489 6.10165L8.82974 10.7965L9.34849 10.2779L4.58016 5.50972C4.53323 5.46264 4.47439 5.42929 4.40996 5.41315L3.09468 5.08316L1.84548 2.8959L2.91648 1.82491L5.10464 3.07531L5.43478 4.39059C5.45078 4.45517 5.48427 4.51417 5.5312 4.56109L10.2995 9.32942L10.8181 8.81067L6.12328 4.11582L5.78107 2.74773C5.75678 2.65071 5.69401 2.56772 5.60725 2.51808L3.0396 1.05101C2.89641 0.96953 2.71625 0.993672 2.59947 1.11001L1.13239 2.57723C1.0144 2.69326 0.988748 2.87372 1.06962 3.01812Z" fill="black"/>
<path d="M16.319 8.22885L8.24968 16.2983L7.73093 15.7795L15.8004 7.71025L16.319 8.22885Z" fill="black"/>
<path d="M6.83738 16.5838C6.77099 16.4733 6.65179 16.4059 6.52293 16.4059H4.32224C4.19354 16.4059 4.07419 16.4733 4.00795 16.5838L2.90753 18.4176C2.83767 18.5338 2.83767 18.6791 2.90753 18.7955L4.00795 20.6293C4.07419 20.7396 4.19354 20.8072 4.32224 20.8072H6.52293C6.65179 20.8072 6.77099 20.7396 6.83738 20.6293L7.93765 18.7955C8.00751 18.6791 8.00751 18.5338 7.93765 18.4176L6.83738 16.5838ZM6.31546 20.0736H4.52986L3.64959 18.6066L4.52986 17.1393H6.31546L7.19573 18.6066L6.31546 20.0736Z" fill="black"/>
<path d="M18.6281 9.80364C21.0506 9.81179 23.0212 7.85448 23.0293 5.43199C23.0306 5.06323 22.9853 4.69597 22.8946 4.33852C22.8457 4.14191 22.6467 4.02226 22.4501 4.07114C22.3855 4.08729 22.3267 4.12064 22.2796 4.16756L19.9964 6.44927L18.1848 5.84557L17.5807 4.03448L19.8639 1.7508C20.0071 1.60746 20.0069 1.37525 19.8636 1.23206C19.8164 1.18483 19.7569 1.15133 19.6919 1.13534C17.3426 0.54039 14.956 1.9625 14.361 4.31166C14.2707 4.66805 14.2255 5.03441 14.2268 5.40212C14.2277 5.69092 14.2574 5.97881 14.3159 6.26157L6.28316 14.2942C6.0004 14.2358 5.71251 14.2061 5.42386 14.205C2.99292 14.205 1.02234 16.1756 1.02234 18.6065C1.02234 21.0373 2.99292 23.0079 5.42386 23.0079C7.85465 23.0079 9.82523 21.0373 9.82523 18.6065C9.82433 18.3177 9.79445 18.0298 9.73606 17.7471L11.6591 15.824L12.5002 16.6651C12.6435 16.8083 12.8756 16.8083 13.0189 16.6651L13.2022 16.4816C13.3631 16.3218 13.6231 16.3218 13.7839 16.4816C13.9446 16.6418 13.9449 16.902 13.7847 17.0627C13.7845 17.0628 13.7842 17.0631 13.7839 17.0634L13.6006 17.2467C13.4574 17.3899 13.4574 17.6221 13.6006 17.7653L17.976 22.1408C19.1268 23.3021 21.0011 23.3106 22.1625 22.1598C23.3237 21.009 23.3322 19.1345 22.1814 17.9733C22.1752 17.9669 22.1688 17.9606 22.1625 17.9543L17.7871 13.579C17.6439 13.4358 17.4117 13.4358 17.2685 13.579L17.0852 13.7623C16.9242 13.9223 16.6643 13.9223 16.5033 13.7623C16.3428 13.6021 16.3423 13.3419 16.5026 13.1814C16.5029 13.1811 16.5032 13.1809 16.5033 13.1806L16.6868 12.9972C16.83 12.854 16.83 12.6218 16.6868 12.4786L15.8458 11.6375L17.7688 9.71447C18.0516 9.77286 18.3395 9.80274 18.6281 9.80364ZM20.0692 22.2744C19.8028 22.274 19.5386 22.2259 19.2892 22.1322L22.1538 19.2674C22.586 20.4173 22.0044 21.6999 20.8545 22.1322C20.6035 22.2265 20.3375 22.2747 20.0692 22.2744ZM15.914 12.7416C15.5078 13.2261 15.5715 13.9482 16.056 14.3542C16.4818 14.7111 17.1024 14.7108 17.5277 14.3532L21.6439 18.473C21.6886 18.5178 21.7304 18.565 21.7708 18.613L18.6348 21.7491C18.5866 21.7088 18.5394 21.667 18.4946 21.6222L14.3752 17.5025C14.7814 17.018 14.7177 16.2959 14.2332 15.8898C13.8074 15.5328 13.1867 15.5333 12.7613 15.8907L12.1745 15.3039L15.327 12.1561L15.914 12.7416ZM17.3951 9.05253L9.07442 17.3715C8.98313 17.4627 8.94647 17.595 8.97755 17.7201C9.48076 19.6962 8.28664 21.7062 6.31032 22.2093C4.33416 22.7125 2.32419 21.5184 1.82098 19.542C1.31793 17.5659 2.51205 15.5559 4.48836 15.0527C5.08618 14.9006 5.71251 14.9006 6.31032 15.0527C6.43541 15.0833 6.56743 15.0467 6.65887 14.956L14.9776 6.63683C15.0687 6.54569 15.1054 6.41336 15.074 6.28843C14.5742 4.33535 15.7524 2.34696 17.7055 1.84707C18.0745 1.75277 18.4563 1.71655 18.8365 1.74024L16.9017 3.67582C16.8035 3.7739 16.769 3.9192 16.813 4.05093L17.5464 6.25176C17.5831 6.36116 17.6691 6.44716 17.7786 6.48352L19.9795 7.21714C20.111 7.26104 20.2563 7.22679 20.3546 7.12872L22.2894 5.19389C22.2938 5.26391 22.296 5.33316 22.296 5.40212C22.3063 7.41751 20.6809 9.05962 18.6655 9.07003C18.354 9.07154 18.0434 9.03321 17.7417 8.95596C17.6166 8.92472 17.4843 8.96124 17.3931 9.05237H17.3951V9.05253Z" fill="black"/>
<path d="M19.987 19.4474L19.4683 19.9662L15.8005 16.2984L16.3191 15.7797L19.987 19.4474Z" fill="black"/>
</g>
<defs>
<clipPath id="clip0">
<rect width="22" height="22" fill="white" transform="translate(1 1)"/>
</clipPath>
</defs>
</svg>
