<svg width="24" height="24" viewBox="0 0 24 24" fill="none" xmlns="http://www.w3.org/2000/svg">
<path d="M12.6131 22.8254L13.5968 21.8417C13.8296 21.6089 13.8296 21.2315 13.5968 20.9986L5.8898 13.2917L22.8523 13.2917C23.1816 13.2917 23.4485 13.0248 23.4485 12.6955V11.3045C23.4485 10.9752 23.1816 10.7083 22.8523 10.7083L5.8898 10.7083L13.5968 3.00136C13.8296 2.76855 13.8296 2.39108 13.5968 2.15823L12.6131 1.1746C12.3803 0.941799 12.0028 0.941799 11.77 1.1746L1.36618 11.5784C1.13338 11.8112 1.13338 12.1887 1.36618 12.4215L11.77 22.8254C12.0028 23.0582 12.3803 23.0582 12.6131 22.8254Z" fill="black"/>
</svg>
