<svg width="24" height="24" viewBox="0 0 24 24" fill="none" xmlns="http://www.w3.org/2000/svg">
<path d="M11.8354 1.17464L10.8518 2.15827C10.619 2.39107 10.619 2.76854 10.8518 3.0014L18.5587 10.7083H1.59617C1.26693 10.7083 1 10.9752 1 11.3045V12.6955C1 13.0248 1.26693 13.2917 1.59617 13.2917H18.5587L10.8518 20.9986C10.619 21.2314 10.619 21.6089 10.8518 21.8418L11.8354 22.8254C12.0682 23.0582 12.4457 23.0582 12.6785 22.8254L23.0823 12.4216C23.3151 12.1888 23.3151 11.8113 23.0823 11.5785L12.6785 1.17464C12.4457 0.941787 12.0682 0.941787 11.8354 1.17464Z" fill="black"/>
</svg>
