<svg width="20" height="20" viewBox="0 0 20 20" fill="none" xmlns="http://www.w3.org/2000/svg">
<path d="M11.7072 0.293201C11.6144 0.200255 11.5042 0.126518 11.3829 0.0762068C11.2616 0.0258961 11.1315 0 11.0002 0C10.8688 0 10.7388 0.0258961 10.6175 0.0762068C10.4962 0.126518 10.386 0.200255 10.2932 0.293201L4.45317 6.1332C4.43817 6.1322 4.42417 6.1242 4.40917 6.1242C4.27784 6.12407 4.14777 6.14988 4.02644 6.20016C3.90511 6.25044 3.79491 6.3242 3.70217 6.4172L2.28817 7.8312C2.00897 8.10942 1.78764 8.44018 1.63694 8.80439C1.48624 9.1686 1.40917 9.55905 1.41017 9.9532C1.41017 10.7552 1.72317 11.5092 2.28917 12.0742L2.99617 12.7812L0.874171 14.9032C0.594311 15.178 0.372686 15.5064 0.222523 15.8687C0.0723604 16.2311 -0.00326134 16.62 0.000171408 17.0122C-0.00455092 17.4516 0.0883567 17.8866 0.272186 18.2857C0.456015 18.6848 0.726179 19.0382 1.06317 19.3202C1.58217 19.7592 2.25117 20.0002 2.94817 20.0002C3.78217 20.0002 4.60217 19.6592 5.19817 19.0632L7.23817 17.0242L7.94517 17.7302C9.07917 18.8632 11.0542 18.8642 12.1872 17.7312L13.6022 16.3172C13.6952 16.2245 13.7689 16.1143 13.8192 15.9929C13.8695 15.8716 13.8953 15.7415 13.8952 15.6102C13.8952 15.5842 13.8822 15.5602 13.8802 15.5342L19.7072 9.7072C19.8001 9.61441 19.8739 9.50421 19.9242 9.38289C19.9745 9.26158 20.0004 9.13153 20.0004 9.0002C20.0004 8.86887 19.9745 8.73882 19.9242 8.61751C19.8739 8.49619 19.8001 8.38599 19.7072 8.2932L11.7072 0.293201V0.293201ZM10.7722 16.3172C10.5817 16.4991 10.3284 16.6005 10.065 16.6003C9.80158 16.6001 9.54841 16.4984 9.35817 16.3162L7.94417 14.9032C7.85138 14.8103 7.74118 14.7365 7.61986 14.6862C7.49855 14.6359 7.36851 14.61 7.23717 14.61C7.10584 14.61 6.97579 14.6359 6.85448 14.6862C6.73316 14.7365 6.62296 14.8103 6.53017 14.9032L3.78417 17.6482C3.56291 17.8713 3.26238 17.9978 2.94817 18.0002C2.73173 18.0037 2.52113 17.93 2.35417 17.7922C2.23958 17.6974 2.14814 17.5776 2.08679 17.4421C2.02545 17.3066 1.99582 17.1589 2.00017 17.0102C1.99913 16.8815 2.024 16.7539 2.0733 16.635C2.12261 16.5161 2.19535 16.4084 2.28717 16.3182L5.11617 13.4892C5.20912 13.3964 5.28285 13.2862 5.33317 13.1649C5.38348 13.0436 5.40937 12.9135 5.40937 12.7822C5.40937 12.6509 5.38348 12.5208 5.33317 12.3995C5.28285 12.2782 5.20912 12.168 5.11617 12.0752L3.70117 10.6602C3.60816 10.5677 3.53445 10.4577 3.48432 10.3365C3.4342 10.2153 3.40865 10.0854 3.40917 9.9542C3.40917 9.6862 3.51317 9.4352 3.70217 9.2462L4.40917 8.5392L11.4802 15.6112L10.7722 16.3172ZM12.6612 13.9252L6.07517 7.3392L11.0002 2.4142L17.5862 9.0002L12.6612 13.9252V13.9252Z" fill="black"/>
</svg>
