<svg width="24" height="24" viewBox="0 0 24 24" fill="none" xmlns="http://www.w3.org/2000/svg">
<g clip-path="url(#clip0)">
<path d="M13.8779 1.32252C13.7758 1.22028 13.6546 1.13917 13.5212 1.08383C13.3878 1.02849 13.2447 1 13.1002 1C12.9557 1 12.8127 1.02849 12.6793 1.08383C12.5458 1.13917 12.4246 1.22028 12.3225 1.32252L5.89849 7.74652C5.88199 7.74542 5.86659 7.73662 5.85009 7.73662C5.70562 7.73648 5.56255 7.76487 5.42908 7.82018C5.29562 7.87548 5.1744 7.95662 5.07239 8.05892L3.51699 9.61432C3.20987 9.92036 2.9664 10.2842 2.80063 10.6848C2.63486 11.0855 2.55009 11.515 2.55119 11.9485C2.55119 12.8307 2.89549 13.6601 3.51809 14.2816L4.29579 15.0593L1.96159 17.3935C1.65374 17.6958 1.40995 18.057 1.24478 18.4556C1.0796 18.8542 0.996413 19.282 1.00019 19.7134C0.994994 20.1968 1.09719 20.6753 1.2994 21.1143C1.50162 21.5533 1.7988 21.942 2.16949 22.2522C2.74039 22.7351 3.47629 23.0002 4.24299 23.0002C5.16039 23.0002 6.06239 22.6251 6.71799 21.9695L8.96199 19.7266L9.73969 20.5032C10.9871 21.7495 13.1596 21.7506 14.4059 20.5043L15.9624 18.9489C16.0647 18.847 16.1458 18.7257 16.2011 18.5922C16.2564 18.4588 16.2848 18.3157 16.2847 18.1712C16.2847 18.1426 16.2704 18.1162 16.2682 18.0876L22.6779 11.6779C22.7801 11.5759 22.8613 11.4546 22.9166 11.3212C22.972 11.1877 23.0004 11.0447 23.0004 10.9002C23.0004 10.7558 22.972 10.6127 22.9166 10.4793C22.8613 10.3458 22.7801 10.2246 22.6779 10.1225L13.8779 1.32252ZM12.8494 18.9489C12.6399 19.149 12.3612 19.2605 12.0715 19.2603C11.7817 19.2601 11.5033 19.1482 11.294 18.9478L9.73859 17.3935C9.63652 17.2913 9.5153 17.2101 9.38185 17.1548C9.24841 17.0995 9.10536 17.071 8.96089 17.071C8.81642 17.071 8.67337 17.0995 8.53993 17.1548C8.40648 17.2101 8.28526 17.2913 8.18319 17.3935L5.16259 20.413C4.9192 20.6584 4.58862 20.7976 4.24299 20.8002C4.0049 20.8041 3.77324 20.723 3.58959 20.5714C3.46354 20.4671 3.36295 20.3354 3.29547 20.1863C3.228 20.0373 3.1954 19.8748 3.20019 19.7112C3.19904 19.5697 3.2264 19.4293 3.28063 19.2985C3.33487 19.1677 3.41489 19.0492 3.51589 18.95L6.62779 15.8381C6.73003 15.736 6.81114 15.6148 6.86649 15.4814C6.92183 15.348 6.95031 15.2049 6.95031 15.0604C6.95031 14.916 6.92183 14.7729 6.86649 14.6395C6.81114 14.506 6.73003 14.3848 6.62779 14.2827L5.07129 12.7262C4.96898 12.6245 4.8879 12.5035 4.83275 12.3702C4.77762 12.2368 4.74952 12.0939 4.75009 11.9496C4.75009 11.6548 4.86449 11.3787 5.07239 11.1708L5.85009 10.3931L13.6282 18.1723L12.8494 18.9489ZM14.9273 16.3177L7.68269 9.07312L13.1002 3.65562L20.3448 10.9002L14.9273 16.3177Z" fill="black"/>
</g>
<defs>
<clipPath id="clip0">
<rect width="22" height="22" fill="white" transform="translate(1 1)"/>
</clipPath>
</defs>
</svg>
