<svg width="24" height="24" viewBox="0 0 24 24" fill="none" xmlns="http://www.w3.org/2000/svg">
<path d="M12 1.34375C6.11328 1.34375 1.34375 6.11328 1.34375 12C1.34375 17.8867 6.11328 22.6562 12 22.6562C17.8867 22.6562 22.6562 17.8867 22.6562 12C22.6562 6.11328 17.8867 1.34375 12 1.34375ZM21.2812 12C21.2812 17.1004 17.152 21.2812 12 21.2812C6.89961 21.2812 2.71875 17.152 2.71875 12C2.71875 6.89961 6.84805 2.71875 12 2.71875C17.1004 2.71875 21.2812 6.84805 21.2812 12ZM14.8832 15.7941L11.3941 13.259C11.2609 13.1602 11.1836 13.0055 11.1836 12.8422V5.98438C11.1836 5.70078 11.4156 5.46875 11.6992 5.46875H12.3008C12.5844 5.46875 12.8164 5.70078 12.8164 5.98438V12.2707L15.8457 14.475C16.0777 14.6426 16.125 14.9648 15.9574 15.1969L15.6051 15.6824C15.4375 15.9102 15.1152 15.9617 14.8832 15.7941V15.7941Z" fill="black"/>
</svg>
