<svg width="24" height="24" viewBox="0 0 24 24" fill="none" xmlns="http://www.w3.org/2000/svg">
<g clip-path="url(#clip0)">
<path d="M10.1396 6.89661C11.0969 6.89661 11.8757 6.1178 11.8757 5.1605C11.8757 4.2032 11.0969 3.42435 10.1396 3.42435C9.18228 3.42435 8.40347 4.2032 8.40347 5.1605C8.40347 6.1178 9.18228 6.89661 10.1396 6.89661ZM10.1396 4.06888C10.7415 4.06888 11.2312 4.55855 11.2312 5.1605C11.2312 5.76241 10.7415 6.25208 10.1396 6.25208C9.53768 6.25208 9.048 5.76241 9.048 5.1605C9.048 4.55859 9.53768 4.06888 10.1396 4.06888Z" fill="black"/>
<path d="M9.5009 19.7775C10.5964 19.7775 11.4877 18.8861 11.4877 17.7906C11.4877 16.6951 10.5964 15.8038 9.5009 15.8038C8.40537 15.8038 7.51407 16.6951 7.51407 17.7906C7.51407 18.8861 8.40537 19.7775 9.5009 19.7775ZM9.5009 16.4483C10.2411 16.4483 10.8432 17.0505 10.8432 17.7906C10.8432 18.5308 10.241 19.1329 9.5009 19.1329C8.76076 19.1329 8.1586 18.5308 8.1586 17.7906C8.1586 17.0505 8.76072 16.4483 9.5009 16.4483Z" fill="black"/>
<path d="M6.65546 6.65605C5.49397 6.65605 4.54904 7.60098 4.54904 8.76247C4.54904 9.92395 5.49397 10.8689 6.65546 10.8689C7.81694 10.8689 8.76187 9.92395 8.76187 8.76247C8.76187 7.60098 7.81694 6.65605 6.65546 6.65605ZM6.65546 10.2244C5.84936 10.2244 5.19357 9.5686 5.19357 8.76251C5.19357 7.95642 5.8494 7.30063 6.65546 7.30063C7.46151 7.30063 8.11734 7.95642 8.11734 8.76251C8.11734 9.5686 7.46155 10.2244 6.65546 10.2244Z" fill="black"/>
<path d="M6.05215 15.9842C7.21364 15.9842 8.15857 15.0392 8.15857 13.8778C8.15857 12.7163 7.21364 11.7713 6.05215 11.7713C4.89067 11.7713 3.94574 12.7163 3.94574 13.8778C3.94574 15.0392 4.89067 15.9842 6.05215 15.9842ZM6.05215 12.4158C6.85825 12.4158 7.51404 13.0716 7.51404 13.8777C7.51404 14.6838 6.8582 15.3396 6.05215 15.3396C5.2461 15.3396 4.59027 14.6838 4.59027 13.8777C4.59027 13.0716 5.24606 12.4158 6.05215 12.4158Z" fill="black"/>
<path d="M8.15165 22.074C8.32649 22.1062 8.49454 21.99 8.52655 21.8149C8.55857 21.6398 8.44251 21.472 8.26741 21.44C7.0322 21.2145 5.92722 20.6017 5.07194 19.6679C2.58067 16.948 1.47148 14.0145 1.77514 10.9487C2.46036 4.0298 9.75657 0.585967 16.4853 1.93178C17.3944 2.11358 17.7484 2.85453 17.7753 3.43374C17.8019 4.00548 17.5219 4.76598 16.6455 5.02783C15.513 5.36612 14.6177 5.85987 13.9842 6.49533C12.5324 7.95183 12.4066 10.4093 13.7929 12.0647C14.4775 12.8821 14.9154 13.8733 15.0624 14.9361C14.3326 16.5948 13.5863 18.4732 13.0088 20.2119C12.0809 20.9783 10.9069 21.4428 9.69242 21.5221C9.51478 21.5337 9.38021 21.6871 9.39181 21.8647C9.40298 22.0352 9.54469 22.166 9.71313 22.166C9.72017 22.166 9.72726 22.1658 9.73444 22.1653C10.7802 22.097 11.7992 21.7711 12.6853 21.231C12.4978 21.8839 12.8038 22.5679 13.4192 22.8636C14.0764 23.1794 14.8719 22.9292 15.2305 22.2947C15.8511 21.1967 16.5235 19.8641 17.1749 18.4409C17.2491 18.2791 17.1779 18.0878 17.0161 18.0137C16.8542 17.9396 16.663 18.0109 16.5889 18.1726C15.945 19.5796 15.2812 20.8952 14.6694 21.9776C14.4771 22.3179 14.0506 22.4519 13.6984 22.2827C13.3651 22.1226 13.2008 21.7503 13.3078 21.3975C14.1397 18.6533 15.5271 15.313 16.7981 12.73L18.5302 13.4715C18.1263 14.5721 17.6663 15.7181 17.1968 16.8046C17.1263 16.968 17.2017 17.1576 17.3651 17.2281C17.5287 17.2987 17.7181 17.2233 17.7887 17.0599C18.6729 15.008 19.6597 12.4451 20.2356 10.2889C20.4403 10.2154 20.5883 10.0673 20.6667 9.88412L20.9456 9.23254C21.0054 9.09294 21.0185 8.945 20.9925 8.80587C21.5289 8.46345 22.2797 7.85266 22.6688 6.9437C23.1495 5.82094 22.83 3.91877 22.5969 2.88486C22.5522 2.68678 22.414 2.52075 22.2273 2.44083C22.0406 2.36091 21.8251 2.37547 21.651 2.47993C20.7419 3.02498 19.1451 4.10693 18.6645 5.22961C18.2755 6.13817 18.3517 7.10277 18.4741 7.72727C18.3522 7.80638 18.2564 7.91969 18.1979 8.05633L17.919 8.7079C17.8399 8.89253 17.8361 9.1011 17.9236 9.29919C17.0589 10.7162 16.2004 12.4361 15.5078 13.9451C15.2646 13.1054 14.8517 12.3251 14.2871 11.6509C13.7465 11.0054 13.4724 10.2488 13.4724 9.40214C13.4724 7.57495 14.6021 6.31104 16.83 5.64545C17.8446 5.34236 18.4684 4.46249 18.4192 3.40392C18.3785 2.5284 17.8038 1.53828 16.6117 1.29984C9.51844 -0.118887 1.85863 3.56746 1.13371 10.8852C0.811232 14.1411 1.97632 17.2425 4.59666 20.1033C5.54768 21.1415 6.77697 21.8231 8.15165 22.074ZM18.4179 9.72668C18.8403 9.90745 19.1627 10.0455 19.585 10.2263C19.3744 11.0011 19.089 11.9016 18.749 12.864L17.0865 12.1524C17.5483 11.2418 18.0028 10.4138 18.4179 9.72668ZM20.3531 8.97886L20.0741 9.63043C20.0516 9.68302 19.9927 9.6997 19.9485 9.68075L18.5617 9.08714C18.5168 9.06789 18.4892 9.01349 18.5114 8.9615L18.7903 8.30988C18.8121 8.25922 18.8696 8.23963 18.9161 8.25961L20.3027 8.85318C20.3474 8.87234 20.3749 8.92777 20.3531 8.97886ZM19.2569 5.48321C19.398 5.15355 19.945 4.25629 21.9709 3.03946C22.4892 5.34545 22.2173 6.36032 22.0762 6.69002C21.7435 7.4674 21.0741 7.99518 20.6091 8.28582C20.5919 8.27675 20.5742 8.26833 20.5563 8.26068L19.1696 7.66708H19.1696C19.1517 7.65943 19.1334 7.65247 19.115 7.64628C19.0044 7.10913 18.9242 6.2605 19.2569 5.48321Z" fill="black"/>
</g>
<defs>
<clipPath id="clip0">
<rect width="22" height="22" fill="white" transform="translate(1 1)"/>
</clipPath>
</defs>
</svg>
