<svg width="13" height="4" viewBox="0 0 13 4" fill="none" xmlns="http://www.w3.org/2000/svg">
<path d="M1.5 3.5C1.10218 3.5 0.720644 3.34196 0.43934 3.06066C0.158035 2.77936 0 2.39782 0 2C0 1.60218 0.158035 1.22064 0.43934 0.93934C0.720644 0.658035 1.10218 0.5 1.5 0.5C1.89782 0.5 2.27936 0.658035 2.56066 0.93934C2.84196 1.22064 3 1.60218 3 2C3 2.39782 2.84196 2.77936 2.56066 3.06066C2.27936 3.34196 1.89782 3.5 1.5 3.5ZM6.5 3.5C6.10218 3.5 5.72064 3.34196 5.43934 3.06066C5.15804 2.77936 5 2.39782 5 2C5 1.60218 5.15804 1.22064 5.43934 0.93934C5.72064 0.658035 6.10218 0.5 6.5 0.5C6.89782 0.5 7.27936 0.658035 7.56066 0.93934C7.84196 1.22064 8 1.60218 8 2C8 2.39782 7.84196 2.77936 7.56066 3.06066C7.27936 3.34196 6.89782 3.5 6.5 3.5ZM11.5 3.5C11.1022 3.5 10.7206 3.34196 10.4393 3.06066C10.158 2.77936 10 2.39782 10 2C10 1.60218 10.158 1.22064 10.4393 0.93934C10.7206 0.658035 11.1022 0.5 11.5 0.5C11.8978 0.5 12.2794 0.658035 12.5607 0.93934C12.842 1.22064 13 1.60218 13 2C13 2.39782 12.842 2.77936 12.5607 3.06066C12.2794 3.34196 11.8978 3.5 11.5 3.5Z" fill="black"/>
</svg>
