<svg width="24" height="24" viewBox="0 0 24 24" fill="none" xmlns="http://www.w3.org/2000/svg">
<g clip-path="url(#clip0)">
<path d="M3.57001 14.9967C2.88841 14.9967 2.23471 14.7259 1.75274 14.2439C1.27077 13.762 1 13.1083 1 12.4267C1 11.7451 1.27077 11.0913 1.75274 10.6094C2.23471 10.1274 2.88841 9.85664 3.57001 9.85664C4.25161 9.85664 4.90532 10.1274 5.38728 10.6094C5.86924 11.0913 6.14002 11.7451 6.14002 12.4267C6.14002 13.1083 5.86924 13.762 5.38728 14.2439C4.90532 14.7259 4.25161 14.9967 3.57001 14.9967ZM12.1367 14.9967C11.4551 14.9967 10.8014 14.7259 10.3194 14.2439C9.83747 13.762 9.5667 13.1083 9.5667 12.4267C9.5667 11.7451 9.83747 11.0913 10.3194 10.6094C10.8014 10.1274 11.4551 9.85664 12.1367 9.85664C12.8183 9.85664 13.472 10.1274 13.954 10.6094C14.4359 11.0913 14.7067 11.7451 14.7067 12.4267C14.7067 13.1083 14.4359 13.762 13.954 14.2439C13.472 14.7259 12.8183 14.9967 12.1367 14.9967ZM20.7034 14.9967C20.0218 14.9967 19.368 14.7259 18.8861 14.2439C18.4041 13.762 18.1334 13.1083 18.1334 12.4267C18.1334 11.7451 18.4041 11.0913 18.8861 10.6094C19.368 10.1274 20.0218 9.85664 20.7034 9.85664C21.385 9.85664 22.0388 10.1274 22.5207 10.6094C23.0027 11.0913 23.2734 11.7451 23.2734 12.4267C23.2734 13.1083 23.0027 13.762 22.5207 14.2439C22.0388 14.7259 21.385 14.9967 20.7034 14.9967Z" fill="black"/>
</g>
<defs>
<clipPath id="clip0">
<rect width="22.2734" height="6.85336" fill="white" transform="translate(1 9)"/>
</clipPath>
</defs>
</svg>
