<svg width="24" height="24" viewBox="0 0 24 24" fill="none" xmlns="http://www.w3.org/2000/svg">
<g clip-path="url(#clip0)">
<path fill-rule="evenodd" clip-rule="evenodd" d="M6.21004 7.25787L3.24404 4.53232L4.38122 3.62177L21.6718 19.5107L20.5079 20.4274L17.1829 17.3717C15.6547 18.0511 13.9793 18.4042 12.2817 18.4045C7.93245 18.4045 4.00216 16.1007 1.76104 12.2934L1.58813 12.0001L1.76104 11.7129C2.80307 9.9014 4.33528 8.36711 6.21004 7.25787ZM14.1504 14.5545L9.72801 10.4906C9.42221 10.9445 9.25668 11.4663 9.24919 12.0001C9.24656 12.3925 9.32839 12.7814 9.48997 13.1446C9.65154 13.5078 9.88969 13.8381 10.1907 14.1164C10.4917 14.3947 10.8496 14.6156 11.2438 14.7662C11.6381 14.9169 12.0609 14.9946 12.4878 14.9946C13.0755 14.991 13.6507 14.8388 14.1504 14.5545ZM7.94051 12.3784C7.84993 11.3934 8.14154 10.4108 8.76372 9.60454L7.17431 8.15009C5.47965 9.09011 4.07779 10.4162 3.10438 12.0001C5.1327 15.2329 8.53761 17.1517 12.2817 17.1517C13.6213 17.1517 14.9469 16.9023 16.1788 16.4184L15.1146 15.4407C14.2372 16.0124 13.168 16.2804 12.0962 16.1972C11.0243 16.1139 10.0191 15.6849 9.25857 14.9859C8.49799 14.287 8.03106 13.3633 7.94051 12.3784ZM22.8083 11.7128C20.5672 7.90558 16.6369 5.60168 12.2877 5.60168C11.1035 5.60424 9.92728 5.77957 8.80296 6.12113L9.87365 7.11113C10.6623 6.92384 11.4732 6.82736 12.2877 6.82391C16.0318 6.82391 19.4367 8.74279 21.465 11.9756C20.7209 13.1749 19.7345 14.2328 18.5589 15.0922L19.5031 15.96C20.8638 14.9513 21.9939 13.7051 22.8283 12.2934L23.0012 12L22.8083 11.7128ZM16.7571 13.4668C16.9481 12.9978 17.045 12.5008 17.0431 12.0001C17.0431 10.8882 16.5624 9.82193 15.7069 9.03573C14.8513 8.24953 13.691 7.80786 12.481 7.80786C11.9428 7.80843 11.4091 7.89742 10.9049 8.07063L11.9756 9.08508C12.1384 9.06116 12.3029 9.04889 12.4677 9.04841C13.3232 9.04677 14.1447 9.35626 14.7527 9.90928C15.3608 10.4623 15.706 11.214 15.7131 12.0001C15.7125 12.1515 15.6992 12.3027 15.6732 12.4523L16.7571 13.4668Z" fill="black"/>
</g>
<defs>
<clipPath id="clip0">
<rect width="22" height="22" fill="white" transform="translate(1 1)"/>
</clipPath>
</defs>
</svg>
