<svg width="24" height="24" viewBox="0 0 24 24" fill="none" xmlns="http://www.w3.org/2000/svg">
<path fill-rule="evenodd" clip-rule="evenodd" d="M11.8767 5.60168C15.8734 5.60168 19.4851 7.90558 21.5444 11.7128L21.7034 12L21.5444 12.2934C19.4911 16.1312 15.8734 18.4045 11.8767 18.4045C7.88005 18.4045 4.26839 16.1005 2.20894 12.2934L2.05005 12L2.22116 11.7128C4.26227 7.90558 7.88005 5.60168 11.8767 5.60168ZM3.44339 12C5.27672 15.2328 8.43616 17.1517 11.8767 17.1517C15.3111 17.1517 18.4401 15.2328 20.3039 12C18.4401 8.77336 15.3173 6.84836 11.8767 6.84836C8.43616 6.84836 5.27672 8.76724 3.44339 12ZM9.73151 8.54872C10.4173 8.08362 11.2255 7.83214 12.0541 7.8261C12.6056 7.82208 13.1526 7.92693 13.6635 8.13465C14.1745 8.34239 14.6394 8.6489 15.0317 9.03665C15.424 9.42439 15.7359 9.88574 15.9496 10.3942C16.1632 10.9027 16.2745 11.4484 16.2768 12C16.2805 12.8286 16.0384 13.6397 15.5813 14.3308C15.1243 15.022 14.4726 15.5621 13.7086 15.8831C12.9447 16.2041 12.1028 16.2915 11.2892 16.1343C10.4757 15.977 9.72696 15.5823 9.13764 14.9998C8.54832 14.4173 8.14483 13.6732 7.97815 12.8615C7.81147 12.0498 7.88907 11.207 8.20114 10.4394C8.51319 9.67175 9.04574 9.01384 9.73151 8.54872ZM10.4144 14.4743C10.8983 14.8035 11.4688 14.9822 12.0541 14.9883C12.448 14.9916 12.8386 14.9165 13.2033 14.7677C13.5681 14.6188 13.8996 14.399 14.1787 14.121C14.4578 13.8431 14.679 13.5124 14.8293 13.1483C14.9796 12.7842 15.0562 12.3939 15.0547 12C15.051 11.4147 14.8744 10.8435 14.5473 10.3582C14.2201 9.87286 13.7568 9.49505 13.2155 9.27219C12.6743 9.04933 12.0793 8.99136 11.5052 9.10556C10.9311 9.21976 10.4036 9.50105 9.98888 9.9141C9.57416 10.3271 9.29071 10.8535 9.17417 11.4271C9.05762 12.0007 9.11316 12.596 9.33381 13.1381C9.55447 13.6802 9.93038 14.1451 10.4144 14.4743Z" fill="black"/>
</svg>
