<svg width="24" height="24" viewBox="0 0 24 24" fill="none" xmlns="http://www.w3.org/2000/svg">
<path fill-rule="evenodd" clip-rule="evenodd" d="M20.7083 1H3.29165C2.02601 1 1 2.02601 1 3.29165V20.7083C1 21.974 2.02601 23 3.29165 23H12.9167V14.7501H10.6251C10.3719 14.7501 10.1667 14.5449 10.1667 14.2918V11.5418C10.1667 11.2886 10.3719 11.0834 10.6251 11.0834H12.9167V8.79178C12.9167 6.00736 15.174 3.75013 17.9584 3.75013H19.7917C20.0449 3.75013 20.2501 3.95535 20.2501 4.20844V6.95844C20.2501 7.21156 20.0449 7.41678 19.7918 7.41678H17.9584C17.199 7.41678 16.5834 8.0324 16.5834 8.79178V11.0834H19.7917C19.8408 11.0835 19.8896 11.0914 19.9362 11.107C20.1763 11.187 20.3062 11.4465 20.2262 11.6866L19.3095 14.4366C19.2472 14.6237 19.0722 14.75 18.8751 14.7501H16.5834V23H20.7083C21.974 23 23 21.974 23 20.7083V3.29165C23 2.02601 21.974 1 20.7083 1Z" fill="black"/>
</svg>
