<svg width="24" height="24" viewBox="0 0 24 24" fill="none" xmlns="http://www.w3.org/2000/svg">
<path fill-rule="evenodd" clip-rule="evenodd" d="M2.76 1C1.78798 1 1 1.78798 1 2.76V21.24C1 22.212 1.78798 23 2.76 23H21.24C22.212 23 23 22.212 23 21.24V2.76C23 1.78798 22.212 1 21.24 1H2.76ZM4.52 12.1898C4.52 7.95424 7.8673 4.52 12 4.52C16.1308 4.52 19.48 7.95424 19.48 12.1898C19.48 15.5739 17.3389 18.4501 14.3463 19.457C13.9628 19.5338 13.832 19.2938 13.832 19.0928C13.832 19.0105 13.833 18.8656 13.8344 18.6715C13.8371 18.2773 13.8413 17.6801 13.8413 16.9926C13.8413 16.2738 13.5983 15.8035 13.3365 15.5733C15.0007 15.3847 16.7492 14.7362 16.7492 11.7898C16.7492 10.9527 16.4593 10.2684 15.9824 9.73185C16.0572 9.53803 16.3097 8.75817 15.9076 7.70188C15.9076 7.70188 15.2813 7.49634 13.8601 8.48825C13.2617 8.31783 12.6259 8.23327 11.9901 8.22938C11.3543 8.23327 10.7185 8.31783 10.1201 8.48825C8.68948 7.49634 8.06303 7.70188 8.06303 7.70188C7.66097 8.75817 7.91343 9.53803 7.99757 9.73185C7.51761 10.2684 7.22776 10.9527 7.22776 11.7898C7.22776 14.7284 8.97372 15.3879 10.6349 15.5798C10.4211 15.7717 10.2285 16.1092 10.1612 16.6056C9.73356 16.8014 8.64958 17.1402 7.98262 15.9675C7.98262 15.9675 7.58805 15.2306 6.83693 15.1772C6.83693 15.1772 6.10701 15.1675 6.78457 15.6429C6.78457 15.6429 7.27638 15.8797 7.61672 16.7649C7.61672 16.7649 8.05555 18.2564 10.1362 17.7939C10.138 18.149 10.1406 18.4558 10.1427 18.6895C10.1443 18.8767 10.1456 19.017 10.1456 19.098C10.1456 19.3015 10.0085 19.539 9.63445 19.4668C6.66302 18.4534 4.52 15.5791 4.52 12.1898Z" fill="black"/>
</svg>
