<svg width="24" height="24" viewBox="0 0 24 24" fill="none" xmlns="http://www.w3.org/2000/svg">
<g clip-path="url(#clip0)">
<path d="M20.6969 3.76289C18.2133 1.67461 14.3762 1.98828 12 4.40742C9.62383 1.98828 5.78672 1.67031 3.30313 3.76289C0.07188 6.48281 0.544536 10.9172 2.84766 13.2676L10.3844 20.9461C10.8141 21.3844 11.3898 21.6293 12 21.6293C12.6145 21.6293 13.1859 21.3887 13.6156 20.9504L21.1523 13.2719C23.4512 10.9215 23.9324 6.4871 20.6969 3.76289ZM19.6828 11.8195L12.1461 19.498C12.043 19.6012 11.957 19.6012 11.8539 19.498L4.31719 11.8195C2.74883 10.2211 2.43086 7.19609 4.63086 5.34414C6.30235 3.93906 8.88047 4.1496 10.4961 5.79531L12 7.32929L13.5039 5.79531C15.1281 4.14101 17.7063 3.93906 19.3691 5.33984C21.5648 7.19179 21.2383 10.234 19.6828 11.8195Z" fill="black"/>
</g>
<defs>
<clipPath id="clip0">
<rect width="22" height="22" fill="white" transform="translate(1 1)"/>
</clipPath>
</defs>
</svg>
