<svg width="24" height="24" viewBox="0 0 24 24" fill="none" xmlns="http://www.w3.org/2000/svg">
<g clip-path="url(#clip0)">
<path d="M22.7282 12.539C22.0418 10.6186 20.1256 9.47221 17.6011 9.47221C17.5021 9.47221 17.4075 9.47446 17.3129 9.47896L17.2953 7.15809L21.1728 6.47522C21.2993 6.45384 21.3191 6.34134 21.2927 6.21534C21.2674 6.09046 21.109 5.22197 21.0859 5.11734C21.0562 4.96996 20.9737 4.97447 20.8582 4.99471C20.7438 5.01497 17.2832 5.51334 17.2832 5.51334L17.2689 3.17559C17.2678 3.03497 17.193 2.99784 17.0555 3.00009L15.928 3.0181C15.8125 3.02035 15.7476 3.07322 15.7498 3.18459L15.7861 5.77997C15.7861 5.77997 12.419 6.37284 12.3277 6.39084C12.2353 6.40659 12.1407 6.45046 12.1616 6.55171C12.1825 6.65296 12.3706 7.78246 12.3904 7.87021C12.4102 7.96022 12.4696 8.01534 12.5972 7.99059L15.8136 7.42359L15.8521 9.69384C14.6674 10.01 13.871 10.6208 13.3705 11.1597C12.5257 12.0676 12.0428 13.2826 12.0428 14.4931C12.0428 16.2774 13.1109 17.3382 14.6036 17.525C18.0818 17.9604 20.2345 14.0825 20.9495 12.2206C22.1562 13.9149 21.2311 17.1189 18.6461 18.9481C18.5988 18.9807 18.5383 19.0932 18.6098 19.181L19.2907 20.0315C19.3787 20.1395 19.5173 20.0979 19.5723 20.0574C22.3333 18.1111 23.5994 14.978 22.7282 12.539ZM14.6036 16.1255C13.541 15.9894 13.5652 15.0972 13.5652 14.4909C13.5652 13.6212 13.9249 12.7133 14.5288 12.0653C14.9057 11.6631 15.3683 11.3554 15.8807 11.1665L15.9709 15.9781C15.5474 16.1255 15.092 16.1862 14.6036 16.1255ZM17.2733 15.5034L17.3239 10.8807C17.4163 10.8762 17.5065 10.8695 17.6011 10.8695C18.4514 10.8695 19.2445 11.0326 19.6746 11.2756C20.1047 11.5197 18.5493 14.3277 17.2733 15.5034ZM7.4283 6.87684C7.41566 6.82875 7.38747 6.78645 7.34832 6.75682C7.30917 6.7272 7.26138 6.71202 7.2127 6.71372H5.0677C5.01947 6.71206 4.9721 6.72717 4.93334 6.7566C4.89458 6.78602 4.86672 6.82802 4.8543 6.87572L1.00871 19.2969C0.990005 19.3542 0.996605 19.3824 1.07691 19.3824H2.9832C3.0657 19.3824 3.0921 19.3565 3.1086 19.3014L4.2174 15.5686H8.063L9.1718 19.3014C9.1894 19.3565 9.2147 19.3824 9.2961 19.3824H11.2035C11.2827 19.3824 11.2893 19.3542 11.2717 19.2969C11.2563 19.2406 7.8804 8.33821 7.4283 6.87684ZM4.5485 13.9846L6.1402 8.07834L7.7319 13.9846H4.5485Z" fill="black"/>
</g>
<defs>
<clipPath id="clip0">
<rect width="22" height="18" fill="white" transform="translate(1 3)"/>
</clipPath>
</defs>
</svg>
