<svg width="24" height="24" viewBox="0 0 24 24" fill="none" xmlns="http://www.w3.org/2000/svg">
<path d="M21.2586 1H2.57462C1.70494 1 1 1.71033 1 2.58666V21.4134C1 22.2897 1.70494 23 2.57462 23H21.2586C22.1283 23 22.8332 22.2897 22.8332 21.4134V2.58666C22.8332 1.71033 22.1283 1 21.2586 1ZM8.74435 17.6289H6.08567V9.56908H8.74435V17.6289ZM7.41509 8.46851H7.39777C6.5056 8.46851 5.92859 7.84966 5.92859 7.07622C5.92859 6.28532 6.52326 5.6836 7.43275 5.6836C8.34225 5.6836 8.90193 6.28532 8.91926 7.07622C8.91926 7.84966 8.34225 8.46851 7.41509 8.46851ZM18.331 17.6289H15.6727V13.3171C15.6727 12.2335 15.2877 11.4944 14.3258 11.4944C13.5913 11.4944 13.1539 11.993 12.9617 12.4741C12.8914 12.6464 12.8742 12.887 12.8742 13.1279V17.6289H10.2157C10.2157 17.6289 10.2505 10.3252 10.2157 9.56908H12.8742V10.7103C13.2275 10.1611 13.8597 9.37991 15.2703 9.37991C17.0194 9.37991 18.331 10.5318 18.331 13.0074V17.6289Z" fill="black"/>
</svg>
