<svg width="24" height="24" viewBox="0 0 24 24" fill="none" xmlns="http://www.w3.org/2000/svg">
<path d="M12 1.91667C9.15685 1.91667 6.84375 4.17836 6.84375 6.95834V9.98334H5.8125C4.67503 9.98334 3.75 10.8878 3.75 12V20.0667C3.75 21.1789 4.67503 22.0833 5.8125 22.0833H18.1875C19.325 22.0833 20.25 21.1789 20.25 20.0667V12C20.25 10.8878 19.325 9.98334 18.1875 9.98334H17.1562V6.95834C17.1562 4.17836 14.8431 1.91667 12 1.91667ZM18.1875 12L18.1896 20.0667H5.8125V12H18.1875ZM8.90625 9.98334V6.95834C8.90625 5.29056 10.2943 3.93334 12 3.93334C13.7057 3.93334 15.0938 5.29056 15.0938 6.95834V9.98334H8.90625Z" fill="black"/>
</svg>
