<svg width="24" height="24" viewBox="0 0 24 24" fill="none" xmlns="http://www.w3.org/2000/svg">
<g clip-path="url(#clip0)">
<path d="M23 13H1C0.45 13 0 12.55 0 12C0 11.45 0.45 11 1 11H23C23.55 11 24 11.45 24 12C24 12.55 23.55 13 23 13ZM23 5H1C0.45 5 0 4.55 0 4C0 3.45 0.45 3 1 3H23C23.55 3 24 3.45 24 4C24 4.55 23.55 5 23 5ZM1 19H23C23.55 19 24 19.45 24 20C24 20.55 23.55 21 23 21H1C0.45 21 0 20.55 0 20C0 19.45 0.45 19 1 19Z" fill="black"/>
</g>
<defs>
<clipPath id="clip0">
<rect width="24" height="24" fill="white"/>
</clipPath>
</defs>
</svg>
