<svg width="24" height="24" viewBox="0 0 24 24" fill="none" xmlns="http://www.w3.org/2000/svg">
<g clip-path="url(#clip0)">
<path d="M1.44546 20.404L6.09508 15.7541C4.96499 14.1824 4.34368 12.3042 4.34368 10.3271C4.34368 7.83679 5.3133 5.49475 7.07687 3.73289C8.83665 1.9718 11.1805 1 13.6726 1C16.164 1 18.5071 1.96951 20.2683 3.73289C22.0296 5.49323 23 7.83603 23 10.3271C23 12.8182 22.0303 15.1602 20.2683 16.9229C18.5071 18.6839 16.1647 19.6557 13.6726 19.6557C11.6961 19.6557 9.81921 19.0375 8.24575 17.9045L3.59612 22.5544C3.298 22.8518 2.91016 23 2.52079 23C2.13066 23 1.74205 22.8518 1.44546 22.5544C0.851514 21.9597 0.851514 20.9978 1.44546 20.404ZM18.1168 14.7717C19.3048 13.5839 19.9581 12.0046 19.9581 10.3264C19.9581 8.64815 19.3048 7.07031 18.1168 5.88254C16.9298 4.6948 15.3518 4.04086 13.6726 4.04086C11.9934 4.04086 10.4147 4.6948 9.22754 5.88254C8.03966 7.07031 7.38564 8.64889 7.38564 10.3271C7.38564 12.0053 8.0389 13.5839 9.22754 14.7724C10.4154 15.9602 11.9927 16.6126 13.6726 16.6126C15.3525 16.6126 16.9313 15.9587 18.1168 14.7717Z" fill="black"/>
</g>
<defs>
<clipPath id="clip0">
<rect width="22" height="22" fill="white" transform="translate(1 1)"/>
</clipPath>
</defs>
</svg>
