<svg width="24" height="24" viewBox="0 0 24 24" fill="none" xmlns="http://www.w3.org/2000/svg">
<path d="M21.4268 11.095L4.42673 3.095C4.25556 3.01445 4.06504 2.98412 3.87729 3.00752C3.68956 3.03091 3.51232 3.10708 3.36615 3.22719C3.21996 3.34729 3.11085 3.5064 3.05149 3.68603C2.99212 3.86565 2.98492 4.05845 3.03073 4.242L4.24273 9.091L12.0007 12L4.24273 14.9091L3.03073 19.758C2.98407 19.9417 2.99065 20.1349 3.04975 20.3149C3.10884 20.4951 3.218 20.6545 3.36444 20.7749C3.51088 20.8952 3.68855 20.9713 3.87667 20.9944C4.0648 21.0175 4.25559 20.9864 4.42673 20.9051L21.4268 12.905C21.5985 12.8243 21.7437 12.6963 21.8456 12.536C21.9473 12.3757 22.0013 12.1898 22.0013 12C22.0013 11.8102 21.9473 11.6243 21.8456 11.464C21.7437 11.3037 21.5985 11.1758 21.4268 11.095Z" fill="black"/>
</svg>
