<svg width="12" height="12" viewBox="0 0 12 12" fill="none" xmlns="http://www.w3.org/2000/svg">
<path d="M0.0162301 4.15217C0.278707 3.34662 0.709195 2.60596 1.27923 1.97917C1.32643 1.92742 1.38788 1.89078 1.45586 1.87388C1.52383 1.85697 1.59529 1.86055 1.66123 1.88417L3.02123 2.36817C3.11784 2.40242 3.22071 2.41534 3.32279 2.40605C3.42486 2.39677 3.52372 2.36549 3.61256 2.31437C3.7014 2.26325 3.77812 2.1935 3.83744 2.10992C3.89677 2.02634 3.93729 1.9309 3.95623 1.83017L4.21623 0.41417C4.22891 0.345345 4.26171 0.281823 4.31048 0.231631C4.35925 0.181438 4.4218 0.146827 4.49023 0.13217C5.32099 -0.0440566 6.17947 -0.0440566 7.01023 0.13217C7.15023 0.16217 7.25823 0.27317 7.28423 0.41417L7.54423 1.83017C7.56286 1.93107 7.60319 2.02671 7.66244 2.11048C7.72169 2.19425 7.79843 2.26414 7.88736 2.31531C7.9763 2.36648 8.07529 2.39771 8.17748 2.40684C8.27968 2.41597 8.38264 2.40277 8.47923 2.36817L9.83923 1.88417C9.90517 1.86055 9.97663 1.85697 10.0446 1.87388C10.1126 1.89078 10.174 1.92742 10.2212 1.97917C10.7902 2.60617 11.2212 3.34617 11.4832 4.15217C11.5049 4.21877 11.5062 4.29032 11.4869 4.35765C11.4677 4.42499 11.4288 4.48505 11.3752 4.53017L10.2732 5.46117C10.1948 5.52716 10.1317 5.60951 10.0884 5.70244C10.0452 5.79538 10.0227 5.89665 10.0227 5.99917C10.0227 6.10169 10.0452 6.20296 10.0884 6.2959C10.1317 6.38883 10.1948 6.47118 10.2732 6.53717L11.3752 7.46817C11.4852 7.56117 11.5272 7.71017 11.4832 7.84617C11.2211 8.65165 10.7909 9.3923 10.2212 10.0192C10.174 10.0709 10.1126 10.1076 10.0446 10.1245C9.97663 10.1414 9.90517 10.1378 9.83923 10.1142L8.47923 9.63017C8.38262 9.59592 8.27975 9.583 8.17767 9.59229C8.0756 9.60157 7.97674 9.63285 7.8879 9.68397C7.79906 9.73509 7.72235 9.80483 7.66302 9.88842C7.6037 9.972 7.56317 10.0674 7.54423 10.1682L7.28423 11.5842C7.2716 11.6532 7.2387 11.7169 7.18972 11.7671C7.14074 11.8173 7.0779 11.8518 7.00923 11.8662C6.17881 12.0424 5.32065 12.0424 4.49023 11.8662C4.42162 11.8517 4.35885 11.8172 4.30989 11.7669C4.26093 11.7167 4.22798 11.6531 4.21523 11.5842L3.95623 10.1682C3.9376 10.0673 3.89727 9.97163 3.83802 9.88786C3.77877 9.80409 3.70203 9.7342 3.6131 9.68303C3.52416 9.63186 3.42517 9.60063 3.32298 9.5915C3.22078 9.58237 3.11782 9.59557 3.02123 9.63017L1.66123 10.1142C1.59529 10.1378 1.52383 10.1414 1.45586 10.1245C1.38788 10.1076 1.32643 10.0709 1.27923 10.0192C0.709554 9.39229 0.279411 8.65164 0.01723 7.84617C-0.00441168 7.77957 -0.00569516 7.70802 0.0135436 7.64069C0.0327824 7.57335 0.0716689 7.51329 0.12523 7.46817L1.22723 6.53717C1.30553 6.47108 1.36846 6.3887 1.41163 6.29578C1.4548 6.20286 1.47717 6.10163 1.47717 5.99917C1.47717 5.89671 1.4548 5.79548 1.41163 5.70256C1.36846 5.60964 1.30553 5.52725 1.22723 5.46117L0.12523 4.53017C0.0716689 4.48505 0.0327824 4.42499 0.0135436 4.35765C-0.00569516 4.29032 -0.00441168 4.21877 0.01723 4.15217H0.0162301ZM3.99923 5.99917C3.99923 6.4633 4.1836 6.90842 4.51179 7.23661C4.83998 7.5648 5.2851 7.74917 5.74923 7.74917C6.21336 7.74917 6.65848 7.5648 6.98667 7.23661C7.31486 6.90842 7.49923 6.4633 7.49923 5.99917C7.49923 5.53504 7.31486 5.08992 6.98667 4.76173C6.65848 4.43354 6.21336 4.24917 5.74923 4.24917C5.2851 4.24917 4.83998 4.43354 4.51179 4.76173C4.1836 5.08992 3.99923 5.53504 3.99923 5.99917V5.99917Z" fill="black"/>
</svg>
