<svg width="24" height="24" viewBox="0 0 24 24" fill="none" xmlns="http://www.w3.org/2000/svg">
<path d="M1.03105 8.62585C1.53316 7.15491 2.35666 5.80246 3.44712 4.65793C3.53741 4.56343 3.65496 4.49653 3.78501 4.46567C3.91503 4.43479 4.05173 4.44133 4.17787 4.48446L6.7795 5.36825C6.96431 5.43079 7.1611 5.45438 7.35637 5.43742C7.55163 5.42047 7.74075 5.36335 7.91069 5.27001C8.08064 5.17666 8.2274 5.0493 8.34088 4.89668C8.45438 4.74406 8.53189 4.56979 8.56812 4.38585L9.06549 1.80022C9.08975 1.67455 9.15249 1.55856 9.24579 1.46691C9.33908 1.37525 9.45874 1.31205 9.58964 1.28529C11.1789 0.963497 12.8211 0.963497 14.4103 1.28529C14.6781 1.34007 14.8847 1.54276 14.9345 1.80022L15.4318 4.38585C15.4675 4.5701 15.5446 4.74474 15.658 4.8977C15.7713 5.05067 15.9181 5.17829 16.0882 5.27173C16.2584 5.36516 16.4477 5.42219 16.6432 5.43886C16.8387 5.45553 17.0357 5.43143 17.2205 5.36825L19.8221 4.48446C19.9482 4.44133 20.0849 4.43479 20.2149 4.46567C20.345 4.49653 20.4625 4.56343 20.5528 4.65793C21.6413 5.80284 22.4657 7.15409 22.9669 8.62585C23.0084 8.74746 23.0109 8.87811 22.974 9.00106C22.9373 9.12402 22.8629 9.23369 22.7603 9.31608L20.6523 11.0161C20.5023 11.1366 20.3816 11.287 20.2987 11.4567C20.2161 11.6264 20.1731 11.8113 20.1731 11.9985C20.1731 12.1857 20.2161 12.3706 20.2987 12.5403C20.3816 12.71 20.5023 12.8604 20.6523 12.9809L22.7603 14.6809C22.9708 14.8507 23.0511 15.1228 22.9669 15.3711C22.4656 16.8419 21.6426 18.1944 20.5528 19.3391C20.4625 19.4335 20.345 19.5005 20.2149 19.5314C20.0849 19.5622 19.9482 19.5557 19.8221 19.5126L17.2205 18.6287C17.0356 18.5662 16.8389 18.5426 16.6436 18.5596C16.4483 18.5765 16.2592 18.6336 16.0893 18.727C15.9193 18.8203 15.7726 18.9477 15.6591 19.1003C15.5456 19.2529 15.4681 19.4271 15.4318 19.6112L14.9345 22.1968C14.9103 22.3228 14.8474 22.4391 14.7537 22.5308C14.66 22.6225 14.5398 22.6855 14.4084 22.7118C12.8198 23.0335 11.1782 23.0335 9.58964 22.7118C9.4584 22.6853 9.33832 22.6223 9.24466 22.5304C9.151 22.4388 9.08797 22.3226 9.06358 22.1968L8.56812 19.6112C8.53248 19.4269 8.45533 19.2522 8.34199 19.0993C8.22865 18.9463 8.08185 18.8187 7.91173 18.7253C7.74159 18.6318 7.55222 18.5748 7.35674 18.5581C7.16123 18.5415 6.96427 18.5656 6.7795 18.6287L4.17787 19.5126C4.05173 19.5557 3.91503 19.5622 3.78501 19.5314C3.65496 19.5005 3.53741 19.4335 3.44712 19.3391C2.35735 18.1944 1.5345 16.8419 1.03296 15.3711C0.991561 15.2495 0.989105 15.1189 1.02591 14.9959C1.06271 14.873 1.1371 14.7633 1.23956 14.6809L3.34765 12.9809C3.49743 12.8602 3.61781 12.7098 3.7004 12.5401C3.78298 12.3704 3.82577 12.1856 3.82577 11.9985C3.82577 11.8114 3.78298 11.6266 3.7004 11.4569C3.61781 11.2872 3.49743 11.1368 3.34765 11.0161L1.23956 9.31608C1.1371 9.23369 1.06271 9.12402 1.02591 9.00106C0.989105 8.87811 0.991561 8.74746 1.03296 8.62585H1.03105ZM8.65038 11.9985C8.65038 12.846 9.00307 13.6588 9.63089 14.2581C10.2587 14.8573 11.1102 15.194 11.9981 15.194C12.8859 15.194 13.7374 14.8573 14.3652 14.2581C14.9931 13.6588 15.3458 12.846 15.3458 11.9985C15.3458 11.151 14.9931 10.3382 14.3652 9.73891C13.7374 9.13964 12.8859 8.80297 11.9981 8.80297C11.1102 8.80297 10.2587 9.13964 9.63089 9.73891C9.00307 10.3382 8.65038 11.151 8.65038 11.9985Z" fill="black"/>
</svg>
