<svg width="24" height="24" viewBox="0 0 24 24" fill="currentColor" xmlns="http://www.w3.org/2000/svg">
<g clip-path="url(#clip0)">
<path d="M19.1071 16.4108C18.2801 16.4108 17.5169 16.701 16.9191 17.1856L10.9066 12.8358C11.0073 12.2832 11.0073 11.717 10.9066 11.1644L16.9191 6.81461C17.5169 7.29921 18.2801 7.58939 19.1071 7.58939C21.0281 7.58939 22.5892 6.02822 22.5892 4.10724C22.5892 2.18627 21.0281 0.625099 19.1071 0.625099C17.1861 0.625099 15.625 2.18627 15.625 4.10724C15.625 4.44385 15.6714 4.76595 15.7613 5.07353L10.0506 9.20858C9.20331 8.0856 7.85688 7.35724 6.33924 7.35724C3.77406 7.35724 1.69638 9.43492 1.69638 12.0001C1.69638 14.5653 3.77406 16.643 6.33924 16.643C7.85688 16.643 9.20331 15.9146 10.0506 14.7916L15.7613 18.9267C15.6714 19.2342 15.625 19.5592 15.625 19.893C15.625 21.814 17.1861 23.3751 19.1071 23.3751C21.0281 23.3751 22.5892 21.814 22.5892 19.893C22.5892 17.9719 21.0281 16.4108 19.1071 16.4108ZM19.1071 2.59831C19.9398 2.59831 20.616 3.27443 20.616 4.10724C20.616 4.94006 19.9398 5.61617 19.1071 5.61617C18.2743 5.61617 17.5982 4.94006 17.5982 4.10724C17.5982 3.27443 18.2743 2.59831 19.1071 2.59831ZM6.33924 14.5537C4.93188 14.5537 3.78567 13.4075 3.78567 12.0001C3.78567 10.5927 4.93188 9.44653 6.33924 9.44653C7.7466 9.44653 8.89281 10.5927 8.89281 12.0001C8.89281 13.4075 7.7466 14.5537 6.33924 14.5537ZM19.1071 21.4019C18.2743 21.4019 17.5982 20.7257 17.5982 19.893C17.5982 19.0602 18.2743 18.384 19.1071 18.384C19.9398 18.384 20.616 19.0602 20.616 19.893C20.616 20.7257 19.9398 21.4019 19.1071 21.4019Z" fill="black"/>
</g>
<defs>
<clipPath id="clip0">
<rect width="24" height="24" fill="white"/>
</clipPath>
</defs>
</svg>
