<svg width="24" height="24" viewBox="0 0 24 24" fill="none" xmlns="http://www.w3.org/2000/svg">
<path fill-rule="evenodd" clip-rule="evenodd" d="M5.25507 13.9919L0.466441 16.4201C-0.164971 16.7403 -0.152708 17.6358 0.487242 17.939L11.6728 23.2386C11.9194 23.3555 12.2076 23.3493 12.4489 23.222L23.0872 17.6091C23.699 17.2863 23.6908 16.4174 23.0731 16.1058L21.828 15.4781L17.7793 17.4687L11.9599 20.5391L4.74329 17.12L7.32075 15.813L5.25507 13.9919Z" fill="black"/>
<path fill-rule="evenodd" clip-rule="evenodd" d="M5.25507 8.64006L0.466441 11.0683C-0.164971 11.3885 -0.152708 12.284 0.487242 12.5872L11.6728 17.8868C11.9194 18.0037 12.2076 17.9975 12.4489 17.8703L23.0872 12.2573C23.699 11.9345 23.6908 11.0656 23.0731 10.7541L21.828 10.1263L17.7793 12.1169L11.9599 15.1873L4.74329 11.7682L7.32075 10.4612L5.25507 8.64006Z" fill="black"/>
<path fill-rule="evenodd" clip-rule="evenodd" d="M21.828 4.82646L17.7793 6.8171L11.9599 9.88759L4.74329 6.46843L11.9763 2.80064L14.5515 4.09917L17.5054 2.64682L12.4402 0.0927435C12.1943 -0.0312242 11.9031 -0.0308971 11.6576 0.0936247L0.466441 5.76852C-0.164971 6.0887 -0.152708 6.98421 0.487242 7.28743L11.6728 12.587C11.9194 12.7039 12.2076 12.6977 12.4489 12.5704L23.0872 6.95746C23.699 6.63468 23.6908 5.76578 23.0731 5.45428L21.828 4.82646Z" fill="black"/>
</svg>
