<svg width="24" height="24" viewBox="0 0 24 24" fill="none" xmlns="http://www.w3.org/2000/svg">
<g clip-path="url(#clip0)">
<path d="M1.03159 9.47585C1.10738 9.24248 1.30904 9.07242 1.55181 9.03717L8.37192 8.0461L11.422 1.86607C11.5306 1.64607 11.7547 1.50681 12 1.50681C12.2453 1.50681 12.4694 1.64607 12.5779 1.86607L15.6282 8.0461L22.4481 9.03717C22.6909 9.07242 22.8927 9.24248 22.9684 9.4758C23.0443 9.70916 22.981 9.9653 22.8053 10.1365L17.8704 14.947L19.0353 21.7396C19.0768 21.9814 18.9773 22.2258 18.7788 22.37C18.6666 22.4516 18.5335 22.4931 18.4 22.4931C18.2973 22.4931 18.1944 22.4687 18.1001 22.419L12 19.2119L5.90014 22.419C5.68294 22.5331 5.41985 22.5141 5.22138 22.37C5.0229 22.2258 4.92343 21.9814 4.96489 21.7396L6.13007 14.947L1.19465 10.1365C1.019 9.9653 0.955705 9.70916 1.03159 9.47585Z" fill="black"/>
</g>
<defs>
<clipPath id="clip0">
<rect width="22" height="22" fill="white" transform="translate(1 1)"/>
</clipPath>
</defs>
</svg>
