<svg width="24" height="24" viewBox="0 0 24 24" fill="none" xmlns="http://www.w3.org/2000/svg">
<g clip-path="url(#clip0)">
<path d="M17.7182 7.875H12.7596L14.5901 2.29766C14.7619 1.64453 14.2678 1 13.5932 1H7.4057C6.89007 1 6.45179 1.38242 6.38304 1.89375L5.00804 12.2062C4.9264 12.825 5.40765 13.375 6.0307 13.375H11.1311L9.15023 21.7324C8.99554 22.3855 9.49398 23 10.1514 23C10.508 23 10.8561 22.8109 11.0452 22.4844L18.6077 9.42188C19.0073 8.73867 18.5131 7.875 17.7182 7.875ZM11.028 19.773L12.4674 13.6887L12.867 11.9957H6.42171L7.70648 2.375H13.1162L11.4534 7.44531L10.8604 9.25H17.1209L11.028 19.773Z" fill="black"/>
</g>
<defs>
<clipPath id="clip0">
<rect width="13.75" height="22" fill="white" transform="translate(5 1)"/>
</clipPath>
</defs>
</svg>
