<svg width="24" height="24" viewBox="0 0 24 24" fill="none" xmlns="http://www.w3.org/2000/svg">
<path d="M20.6428 1H3.35714C2.05581 1 1 2.05581 1 3.35714V20.6428C1 21.9442 2.05581 23 3.35714 23H20.6428C21.9442 23 23 21.9442 23 20.6428V3.35714C23 2.05581 21.9442 1 20.6428 1ZM18.2415 8.79822C18.2513 8.93572 18.2513 9.07813 18.2513 9.21563C18.2513 13.4732 15.0103 18.379 9.08795 18.379C7.26117 18.379 5.56696 17.8487 4.14286 16.9353C4.40313 16.9647 4.65358 16.9746 4.91875 16.9746C6.42634 16.9746 7.81116 16.4638 8.91607 15.5996C7.50178 15.5701 6.3134 14.6419 5.90581 13.3651C6.40178 13.4388 6.84866 13.4388 7.35937 13.3063C5.88616 13.0067 4.78125 11.7103 4.78125 10.1437V10.1045C5.20849 10.3451 5.70937 10.4924 6.23482 10.5121C5.79307 10.2182 5.43093 9.81954 5.18072 9.35173C4.93051 8.88388 4.80002 8.36136 4.8009 7.83081C4.8009 7.23169 4.95804 6.68169 5.23795 6.20536C6.8241 8.15982 9.20581 9.4366 11.8772 9.5741C11.4205 7.38884 13.0558 5.61608 15.0201 5.61608C15.9482 5.61608 16.7831 6.00401 17.3723 6.63259C18.0991 6.49509 18.7964 6.225 19.4151 5.85669C19.1746 6.60313 18.6687 7.23169 18.0009 7.62946C18.6491 7.56072 19.2777 7.37901 19.8572 7.12858C19.4201 7.77187 18.8701 8.34151 18.2415 8.79822Z" fill="black"/>
</svg>
