<svg width="24" height="24" viewBox="0 0 24 24" fill="none" xmlns="http://www.w3.org/2000/svg">
<g clip-path="url(#clip0)">
<path d="M21.2154 18.9538C20.7138 17.7188 19.9856 16.5971 19.0718 15.651C18.1607 14.7022 17.0815 13.9457 15.8936 13.4234C15.883 13.4178 15.8723 13.4151 15.8617 13.4095C17.5186 12.1658 18.5957 10.14 18.5957 7.85427C18.5957 4.06785 15.6436 1 12 1C8.35641 1 5.40431 4.06785 5.40431 7.85427C5.40431 10.14 6.48143 12.1658 8.13834 13.4123C8.1277 13.4178 8.11706 13.4206 8.10642 13.4261C6.91494 13.9485 5.84579 14.6975 4.92824 15.6538C4.01524 16.6006 3.28731 17.7221 2.78464 18.9566C2.29082 20.1651 2.02449 21.4608 2.00007 22.7734C1.99936 22.8029 2.00434 22.8321 2.01471 22.8597C2.02508 22.8871 2.04064 22.9123 2.06047 22.9333C2.0803 22.9544 2.104 22.9712 2.13016 22.9827C2.15633 22.9942 2.18444 23 2.21283 23H3.80857C3.92559 23 4.01868 22.9032 4.02134 22.7844C4.07453 20.6508 4.89898 18.6525 6.35642 17.1379C7.8644 15.5709 9.86705 14.7085 12 14.7085C14.133 14.7085 16.1356 15.5709 17.6436 17.1379C19.101 18.6525 19.9255 20.6508 19.9786 22.7844C19.9814 22.9061 20.0745 23 20.1914 23H21.7871C21.8156 23 21.8437 22.9942 21.8699 22.9827C21.8961 22.9712 21.9197 22.9544 21.9397 22.9333C21.9594 22.9123 21.9749 22.8871 21.9853 22.8597C21.9957 22.8321 22.0008 22.8029 21.9999 22.7734C21.9734 21.4523 21.71 20.167 21.2154 18.9538ZM12 12.608C10.7793 12.608 9.63035 12.1133 8.766 11.2151C7.90164 10.3168 7.42558 9.12287 7.42558 7.85427C7.42558 6.58567 7.90164 5.3917 8.766 4.49347C9.63035 3.59523 10.7793 3.1005 12 3.1005C13.2208 3.1005 14.3697 3.59523 15.2341 4.49347C16.0984 5.3917 16.5745 6.58567 16.5745 7.85427C16.5745 9.12287 16.0984 10.3168 15.2341 11.2151C14.3697 12.1133 13.2208 12.608 12 12.608Z" fill="black"/>
</g>
<defs>
<clipPath id="clip0">
<rect width="20" height="22" fill="white" transform="translate(2 1)"/>
</clipPath>
</defs>
</svg>
