<svg width="24" height="24" viewBox="0 0 24 24" fill="currentColor" xmlns="http://www.w3.org/2000/svg">
<g clip-path="url(#clip0)">
<path d="M10.625 20.5C10.625 20.5 9.25 20.5 9.25 19.125C9.25 17.75 10.625 13.625 16.125 13.625C21.625 13.625 23 17.75 23 19.125C23 20.5 21.625 20.5 21.625 20.5H10.625ZM16.125 12.25C17.2189 12.25 18.2682 11.8154 19.0418 11.0418C19.8154 10.2682 20.25 9.21902 20.25 8.125C20.25 7.03098 19.8154 5.98177 19.0418 5.20818C18.2682 4.4346 17.2189 4 16.125 4C15.031 4 13.9818 4.4346 13.2082 5.20818C12.4346 5.98177 12 7.03098 12 8.125C12 9.21902 12.4346 10.2682 13.2082 11.0418C13.9818 11.8154 15.031 12.25 16.125 12.25Z" fill="black"/>
<path fill-rule="evenodd" clip-rule="evenodd" d="M8.172 20.4998C7.96817 20.0707 7.8665 19.6 7.875 19.1248C7.875 17.2618 8.81 15.3436 10.537 14.0099C9.675 13.7443 8.77693 13.6144 7.875 13.6249C2.375 13.6249 1 17.7499 1 19.1248C1 20.4998 2.375 20.4998 2.375 20.4998H8.172Z" fill="black"/>
<path d="M7.18754 12.25C8.09922 12.25 8.97357 11.8879 9.61822 11.2432C10.2629 10.5986 10.625 9.7242 10.625 8.81252C10.625 7.90084 10.2629 7.02649 9.61822 6.38184C8.97357 5.73718 8.09922 5.37502 7.18754 5.37502C6.27586 5.37502 5.40151 5.73718 4.75685 6.38184C4.1122 7.02649 3.75004 7.90084 3.75004 8.81252C3.75004 9.7242 4.1122 10.5986 4.75685 11.2432C5.40151 11.8879 6.27586 12.25 7.18754 12.25Z" fill="black"/>
</g>
<defs>
<clipPath id="clip0">
<rect width="22" height="16.5" fill="white" transform="translate(1 4)"/>
</clipPath>
</defs>
</svg>
