<svg width="24" height="24" viewBox="0 0 24 24" fill="none" xmlns="http://www.w3.org/2000/svg">
<g clip-path="url(#clip0)">
<path d="M16.5882 0.999985H7.41176C7.03749 1.00048 6.67869 1.14937 6.41404 1.41402C6.14939 1.67867 6.00049 2.03748 6 2.41175V21.4706C6.00049 21.8448 6.14939 22.2036 6.41404 22.4683C6.67869 22.733 7.03749 22.8818 7.41176 22.8823H16.5882C16.9625 22.8818 17.3213 22.733 17.586 22.4683C17.8506 22.2036 17.9995 21.8448 18 21.4706V2.41175C17.9995 2.03748 17.8506 1.67867 17.586 1.41402C17.3213 1.14937 16.9625 1.00048 16.5882 0.999985ZM13.6518 1.70587L13.4532 2.41175H10.511L10.3346 1.70587H13.6518ZM17.2941 21.4706C17.2939 21.6577 17.2194 21.8371 17.0871 21.9694C16.9548 22.1018 16.7754 22.1762 16.5882 22.1765H7.41176C7.22463 22.1762 7.04523 22.1018 6.9129 21.9694C6.78058 21.8371 6.70613 21.6577 6.70588 21.4706V2.41175C6.70613 2.22461 6.78058 2.04521 6.9129 1.91289C7.04523 1.78056 7.22463 1.70611 7.41176 1.70587H9.60662L9.89294 2.85028C9.91203 2.92663 9.95609 2.99442 10.0181 3.04286C10.0801 3.0913 10.1566 3.11762 10.2353 3.11763H13.7206C13.7975 3.11763 13.8723 3.0925 13.9336 3.04608C13.995 2.99965 14.0394 2.93446 14.0603 2.86043L14.385 1.70587H16.5882C16.7754 1.70611 16.9548 1.78056 17.0871 1.91289C17.2194 2.04521 17.2939 2.22461 17.2941 2.41175V21.4706Z" fill="black"/>
<path d="M10.2353 20.7647H7.76471C7.67111 20.7647 7.58134 20.8019 7.51515 20.8681C7.44896 20.9342 7.41177 21.024 7.41177 21.1176C7.41177 21.2112 7.44896 21.301 7.51515 21.3672C7.58134 21.4334 7.67111 21.4706 7.76471 21.4706H10.2353C10.3289 21.4706 10.4187 21.4334 10.4849 21.3672C10.5511 21.301 10.5882 21.2112 10.5882 21.1176C10.5882 21.024 10.5511 20.9342 10.4849 20.8681C10.4187 20.8019 10.3289 20.7647 10.2353 20.7647Z" fill="black"/>
<path d="M11.647 20.7647H11.2941C11.2005 20.7647 11.1107 20.8019 11.0445 20.8681C10.9783 20.9342 10.9412 21.024 10.9412 21.1176C10.9412 21.2112 10.9783 21.301 11.0445 21.3672C11.1107 21.4334 11.2005 21.4706 11.2941 21.4706H11.647C11.7407 21.4706 11.8304 21.4334 11.8966 21.3672C11.9628 21.301 12 21.2112 12 21.1176C12 21.024 11.9628 20.9342 11.8966 20.8681C11.8304 20.8019 11.7407 20.7647 11.647 20.7647Z" fill="black"/>
<path d="M13.2404 9.8738C13.2007 9.84995 13.1566 9.83417 13.1108 9.82735C13.0649 9.82052 13.0182 9.8228 12.9732 9.83404C12.9283 9.84528 12.8859 9.86527 12.8487 9.89286C12.8115 9.92046 12.78 9.95511 12.7562 9.99486L10.6385 13.5243C10.5904 13.6045 10.5761 13.7006 10.5988 13.7915C10.6215 13.8823 10.6793 13.9603 10.7596 14.0085C10.8399 14.0567 10.936 14.071 11.0268 14.0483C11.1176 14.0256 11.1957 13.9677 11.2438 13.8874L13.3615 10.358C13.3853 10.3183 13.4011 10.2742 13.4079 10.2284C13.4147 10.1825 13.4125 10.1358 13.4012 10.0908C13.39 10.0459 13.37 10.0036 13.3424 9.96633C13.3148 9.92909 13.2802 9.89765 13.2404 9.8738Z" fill="black"/>
<path d="M14.3932 9.95586C14.3643 9.91967 14.3285 9.88954 14.2878 9.86719C14.2472 9.84483 14.2026 9.8307 14.1565 9.82559C14.0635 9.81527 13.9701 9.84235 13.897 9.90085C13.8239 9.95935 13.7771 10.0445 13.7668 10.1376C13.7565 10.2306 13.7835 10.3239 13.842 10.397L15.0773 11.9412L13.842 13.4853C13.7835 13.5584 13.7565 13.6517 13.7668 13.7448C13.7771 13.8378 13.8239 13.923 13.897 13.9815C13.9701 14.04 14.0635 14.067 14.1565 14.0567C14.2496 14.0464 14.3347 13.9995 14.3932 13.9265L15.805 12.1617C15.8551 12.0991 15.8824 12.0213 15.8824 11.9412C15.8824 11.861 15.8551 11.7832 15.805 11.7206L14.3932 9.95586Z" fill="black"/>
<path d="M9.60675 13.9265C9.66525 13.9995 9.75039 14.0464 9.84345 14.0567C9.9365 14.067 10.0298 14.04 10.1029 13.9815C10.176 13.923 10.2229 13.8378 10.2332 13.7448C10.2435 13.6517 10.2165 13.5584 10.158 13.4853L8.92266 11.9412L10.158 10.397C10.1869 10.3608 10.2085 10.3193 10.2214 10.2748C10.2343 10.2303 10.2383 10.1836 10.2332 10.1375C10.2281 10.0915 10.214 10.0469 10.1916 10.0062C10.1693 9.96563 10.1391 9.92982 10.1029 9.90085C10.0667 9.87188 10.0252 9.85032 9.98068 9.83741C9.93615 9.8245 9.88952 9.82048 9.84345 9.82559C9.79737 9.8307 9.75275 9.84483 9.71214 9.86719C9.67153 9.88954 9.63571 9.91967 9.60675 9.95586L8.19498 11.7206C8.14486 11.7832 8.11755 11.861 8.11755 11.9412C8.11755 12.0213 8.14486 12.0991 8.19498 12.1617L9.60675 13.9265Z" fill="black"/>
</g>
<defs>
<clipPath id="clip0">
<rect width="22" height="22" fill="white" transform="translate(1 1)"/>
</clipPath>
</defs>
</svg>
